<svg width="52" height="52" viewBox="0 0 52 52" fill="none" xmlns="http://www.w3.org/2000/svg">
<path d="M25.9667 0C11.6495 0 0 11.6664 0 26.0043C0 31.4342 1.67164 36.4824 4.52988 40.6545L12.0999 33.0736C11.0172 30.9485 10.3936 28.5545 10.3936 26.0043C10.3936 17.4085 17.3746 10.4087 25.9667 10.4087C34.5587 10.4087 41.5397 17.3998 41.5397 26.0043C41.5397 34.6088 34.8705 41.253 26.5556 41.5653L28.2966 48.1661L25.9927 49.953L23.6281 48.1401L25.3431 41.5566C21.4281 41.3918 17.8164 39.7611 15.166 37.237L7.95976 44.74C12.6369 49.2851 18.951 52 25.9667 52C40.2839 52 51.9333 40.3336 51.9333 25.9957C51.9333 11.6577 40.2839 0 25.9667 0Z" fill="#88EAEA"/>
<path d="M24.6588 34.0712C23.8879 30.7057 21.2635 28.0775 17.9029 27.3055C16.5171 26.9846 16.5171 25.0156 17.9029 24.6947C21.2635 23.9227 23.8879 21.2945 24.6588 17.9291C24.9793 16.5412 26.9454 16.5412 27.2658 17.9291C28.0367 21.2945 30.6611 23.9227 34.0217 24.6947C35.4075 25.0156 35.4075 26.9846 34.0217 27.3055C30.6611 28.0775 28.0367 30.7057 27.2658 34.0712C26.9454 35.459 24.9793 35.459 24.6588 34.0712Z" fill="#0B7A80"/>
<path d="M36.8193 37.1677C36.7327 37.2545 36.6288 37.3325 36.5335 37.4193C36.2737 37.6621 36.0138 37.8963 35.7453 38.1219C35.5461 38.278 35.3469 38.4254 35.139 38.5729C34.9485 38.7117 34.7666 38.8591 34.5674 38.9892C34.2642 39.1887 33.9524 39.3796 33.6406 39.553C33.5367 39.6138 33.4327 39.6832 33.3201 39.7352C32.9304 39.9434 32.5406 40.1342 32.1335 40.3077C32.0816 40.3337 32.0383 40.351 31.9863 40.3771C31.5532 40.5592 31.1115 40.7153 30.6698 40.8628C30.6351 40.8715 30.6005 40.8888 30.5658 40.8975C30.1328 41.0363 29.691 41.1404 29.2407 41.2358C29.18 41.2531 29.1194 41.2705 29.0588 41.2792C28.6603 41.3572 28.2533 41.4179 27.8462 41.4613C27.7249 41.4787 27.6037 41.496 27.4737 41.5133C27.1706 41.5394 26.8588 41.548 26.547 41.5567L28.2879 48.1576L25.984 49.9444L23.6195 48.1315L25.3257 41.5567C25.1958 41.548 25.0572 41.5394 24.9273 41.5307C24.7368 41.522 24.5462 41.5133 24.3557 41.496C20.8998 41.149 17.6691 39.6571 15.1487 37.2284L7.94244 44.7314C12.3597 48.9816 18.0589 51.5057 24.1305 51.922C24.2344 51.922 24.3383 51.9394 24.4423 51.948C24.7108 51.9654 24.9793 51.9741 25.2564 51.9741C25.4643 51.9741 25.6635 51.9914 25.8714 51.9914C25.8887 51.9914 25.906 51.9914 25.9234 51.9914C26.2698 51.9914 26.6163 51.9827 26.9541 51.9654C27.0407 51.9654 27.1273 51.9654 27.2052 51.9654C27.4737 51.9567 27.7422 51.9307 28.0107 51.9047C28.1753 51.8873 28.3399 51.8787 28.5044 51.87C28.721 51.8526 28.9375 51.8179 29.154 51.7919C29.3706 51.7659 29.5871 51.7399 29.795 51.7138C29.9682 51.6878 30.1328 51.6531 30.306 51.6271C30.5658 51.5837 30.8257 51.5404 31.0855 51.4883C31.2068 51.4623 31.328 51.4363 31.458 51.4103C31.7611 51.3409 32.0642 51.2802 32.3674 51.2021C32.4453 51.1847 32.532 51.1587 32.6099 51.1327C32.9477 51.046 33.2942 50.9505 33.6233 50.8465C33.6666 50.8378 33.7012 50.8204 33.7445 50.8031C34.117 50.6817 34.4894 50.5602 34.8532 50.4301C34.8619 50.4301 34.8705 50.4301 34.8792 50.4214C36.4555 49.8403 37.9713 49.1117 39.3917 48.2443C39.3917 48.2443 39.4004 48.2443 39.4091 48.2356C39.7555 48.0274 40.0846 47.8106 40.4224 47.5851C40.4571 47.5591 40.4917 47.5417 40.5264 47.5157C40.8295 47.3075 41.124 47.0993 41.4098 46.8825C41.4791 46.8304 41.5484 46.7784 41.6177 46.7177C41.8689 46.5269 42.1201 46.336 42.3626 46.1365C42.4665 46.0498 42.5704 45.9631 42.6744 45.8676C42.8823 45.6942 43.0815 45.5207 43.2893 45.3385C43.4193 45.2171 43.5492 45.0957 43.6791 44.9829C43.809 44.8615 43.9303 44.74 44.0602 44.6186L36.8107 37.1677H36.8193Z" fill="#0B7A80"/>
</svg>
